<?xml version="1.0" encoding="UTF-8" standalone="no"?>
<!-- Created with Inkscape (http://www.inkscape.org/) -->

<svg
   xmlns:dc="http://purl.org/dc/elements/1.1/"
   xmlns:cc="http://creativecommons.org/ns#"
   xmlns:rdf="http://www.w3.org/1999/02/22-rdf-syntax-ns#"
   xmlns:svg="http://www.w3.org/2000/svg"
   xmlns="http://www.w3.org/2000/svg"
   xmlns:sodipodi="http://sodipodi.sourceforge.net/DTD/sodipodi-0.dtd"
   xmlns:inkscape="http://www.inkscape.org/namespaces/inkscape"
   width="62.262001mm"
   height="99.106003mm"
   viewBox="0 0 220.61339 351.163"
   id="svg2"
   version="1.1"
   inkscape:version="0.91 r13725"
   sodipodi:docname="jp-icon.svg">
  <defs
     id="defs4" />
  <sodipodi:namedview
     id="base"
     pagecolor="#ffffff"
     bordercolor="#666666"
     borderopacity="1.0"
     inkscape:pageopacity="0.0"
     inkscape:pageshadow="2"
     inkscape:zoom="11.313709"
     inkscape:cx="36.720033"
     inkscape:cy="214.49137"
     inkscape:document-units="px"
     inkscape:current-layer="layer1"
     showgrid="false"
     inkscape:window-width="1920"
     inkscape:window-height="1017"
     inkscape:window-x="-8"
     inkscape:window-y="-8"
     inkscape:window-maximized="1"
     showguides="true" />
  <metadata
     id="metadata7">
    <rdf:RDF>
      <cc:Work
         rdf:about="">
        <dc:format>image/svg+xml</dc:format>
        <dc:type
           rdf:resource="http://purl.org/dc/dcmitype/StillImage" />
        <dc:title></dc:title>
      </cc:Work>
    </rdf:RDF>
  </metadata>
  <g
     inkscape:label="Layer 1"
     inkscape:groupmode="layer"
     id="layer1"
     transform="translate(0,-701.19921)">
    <path
       style="fill:#ffffff;fill-rule:evenodd;stroke:#000000;stroke-width:1px;stroke-linecap:butt;stroke-linejoin:miter;stroke-opacity:1"
       d="m 121.25878,856.98295 1.51523,-17.9302 -0.88388,-3.85121 -6.25032,-7.63928 -11.21645,-16.9103 -0.71428,-6.25 4.82142,-8.39285 10.53572,-9.46429 7.67857,-6.42857 3.03571,-6.07143 3.75,-5.17857 10.35715,-6.25 9.28571,-3.21429 20.89286,0.53572 15.35714,15.17857 5.89286,18.75 -0.35714,24.82143 -4.46429,21.96428 -8.75,17.85715 -4.64286,1.60714 z"
       id="path4311"
       inkscape:connector-curvature="0" />
    <path
       style="fill:#ffffff;fill-rule:evenodd;stroke:#000000;stroke-width:1px;stroke-linecap:butt;stroke-linejoin:miter;stroke-opacity:1"
       d="m 1.7447944,847.34839 0.089286,3.03572 3.0357143,1.51785 8.7499993,2.67857 1.875,1.16072 -0.446429,3.21428 0.625,5.17858 -0.892857,5.53571 1.339286,4.91071 1.428571,5.26786 2.857143,4.28572 5.178572,1.25 13.75,0.44642 6.875,4.64286 3.125,3.48214 4.732143,12.5 2.857143,4.91072 1.875,0.0893 9.196428,-12.58928 3.482143,-9.91072 -0.714286,-23.03571 -0.982143,-3.21429 c 0,0 -6.25,-0.44642 -6.696428,-0.53571 -0.446429,-0.0893 -4.642857,-1.25 -4.642857,-1.25 l -5.625,-3.30357 -0.08929,-1.51786 1.785714,-0.89286 6.875,-1.33928 5.357143,-2.14286 -1.160714,-6.51786 -14.285714,-0.17857 -4.732143,-2.05357 1.964285,-3.66071 -2.410714,-97.32143 -3.303571,-16.875 -3.214286,-7.67857 -1.875,-0.44643 -3.75,5.89286 -5.446429,25.80357 -2.5,41.07143 -3.03571,54.82141 -6.428571,-0.53572 -10.8928576,0.53572 z"
       id="path4309"
       inkscape:connector-curvature="0" />
    <path
       style="fill:#ffffff;fill-rule:evenodd;stroke:#000000;stroke-width:2.5;stroke-linecap:butt;stroke-linejoin:miter;stroke-miterlimit:4;stroke-dasharray:none;stroke-opacity:1"
       d="m 200.17695,861.2761 -6.81853,6.69226 c -5.90327,6.2504 -9.7867,12.40088 -11.74302,20.58186 l -1.13642,12.87944 -1.01016,23.23351 1.51523,2.77792 c 1.91774,2.09358 4.15606,3.07994 6.69226,4.16688 -2.4588,-3.54691 -2.20307,-6.55999 -2.27284,-10.6066 0.30622,-10.55825 4.21733,-20.13244 10.48033,-27.90547 5.71004,-6.00767 8.56761,-12.83286 9.09138,-20.20305 0.60182,-5.56382 -0.93149,-8.08625 -4.79823,-11.61675 z"
       id="path4191"
       inkscape:connector-curvature="0"
       sodipodi:nodetypes="ccccccccccc" />
    <path
       style="fill:#e61414;fill-opacity:1;fill-rule:evenodd;stroke:#000000;stroke-width:2.5;stroke-linecap:butt;stroke-linejoin:miter;stroke-miterlimit:4;stroke-dasharray:none;stroke-opacity:1"
       d="m 206.93277,830.65673 c -3.54447,3.15144 -9.1649,6.7303 -14.71093,8.08007 l -10.10157,20.51954 -2.39843,16.03515 1.86132,13.62305 0.0332,-0.36524 c 1.95632,-8.18098 5.83891,-14.32967 11.74218,-20.58007 l 2.56641,-2.51954 c 1.11993,-1.19359 2.30683,-2.41794 3.68359,-3.79492 5.61917,-4.25285 11.45963,-12.22499 12.1211,-16.91992 0.67663,-6.19369 -0.93301,-11.7242 -4.79688,-14.07812 z"
       id="path4193"
       inkscape:connector-curvature="0"
       sodipodi:nodetypes="ccccccccccc" />
    <path
       style="fill:#ffffff;fill-rule:evenodd;stroke:#000000;stroke-width:2.5;stroke-linecap:butt;stroke-linejoin:miter;stroke-miterlimit:4;stroke-dasharray:none;stroke-opacity:1"
       d="m 211.9191,796.05907 c -4.804,3.99445 -7.90639,4.45961 -12.87891,3.66016 l -2.90429,24.30664 -4.54492,14.96289 0.49414,0.0254 0.13672,-0.27735 c 5.54603,-1.34977 11.16646,-4.92863 14.71093,-8.08007 4.18604,-4.01849 7.3503,-7.40973 9.01451,-12.13979 1.67738,-5.78196 2.50269,-9.64091 0.63895,-16.65486 -1.06972,-3.0978 -2.3965,-4.82823 -4.66713,-5.80302 z"
       id="path4198"
       inkscape:connector-curvature="0"
       sodipodi:nodetypes="cccccccccc" />
    <path
       style="fill:#e61414;fill-opacity:1;fill-rule:evenodd;stroke:#000000;stroke-width:2.5;stroke-linecap:butt;stroke-linejoin:miter;stroke-miterlimit:4;stroke-dasharray:none;stroke-opacity:1"
       d="m 207.29996,756.39501 c -1.71023,3.91046 -2.587,5.57891 -5.71187,8.90533 -2.25482,2.51896 -6.41389,4.87067 -10.29977,4.81647 l 2.97648,13.7782 0.625,7.85742 3.20313,9.16797 0.78125,0.1875 0.16601,-1.38867 c 4.97252,0.79945 8.07491,0.33429 12.87891,-3.66016 3.95685,-3.93416 6.53723,-9.50762 7.21094,-14.75391 0.90193,-8.08394 -0.73379,-15.42878 -5.89258,-20.89257 -1.84618,-1.69391 -3.62427,-3.13807 -5.9375,-4.01758 z"
       id="path4203"
       inkscape:connector-curvature="0"
       sodipodi:nodetypes="cccccccccccc" />
    <path
       style="fill:#ffffff;fill-rule:evenodd;stroke:#000000;stroke-width:2.5;stroke-linecap:butt;stroke-linejoin:miter;stroke-miterlimit:4;stroke-dasharray:none;stroke-opacity:1"
       d="m 190.13785,725.97899 c 0.62018,4.05678 0.10277,7.33784 -1.04011,11.74282 -2.58092,7.94715 -7.80724,12.62927 -13.66887,15.97398 l 3.2832,8.58594 9.5332,8.08007 3.36719,1.25977 -0.32422,-1.50391 c 3.88588,0.0542 8.04596,-2.29744 10.30078,-4.8164 3.12487,-3.32642 4.00071,-4.99579 5.71094,-8.90625 3.3293,-6.63803 4.0394,-12.85106 1.46289,-19.24219 -1.60108,-3.45186 -3.63778,-7.16885 -6.83427,-9.11077 -3.8446,-2.0637 -7.36395,-2.25169 -11.79073,-2.06306 z"
       id="path4208"
       inkscape:connector-curvature="0"
       sodipodi:nodetypes="cccccccccccc" />
    <path
       style="fill:#e61414;fill-opacity:1;fill-rule:evenodd;stroke:#000000;stroke-width:2.5;stroke-linecap:butt;stroke-linejoin:miter;stroke-miterlimit:4;stroke-dasharray:none;stroke-opacity:1"
       d="m 165.09767,705.3007 c -5.00131,1.15451 -8.49325,2.33862 -11.69894,5.35184 5.46588,3.79615 6.34408,10.24567 7.3817,16.33622 0.46693,9.13483 -2.46222,15.61429 -6.82784,21.65625 l 10.22237,3.64258 10.17773,2.32031 1.375,-0.13086 -0.29882,-0.78125 c 5.86163,-3.34471 11.08705,-8.02746 13.66797,-15.97461 1.14287,-4.40498 1.66119,-7.68541 1.04101,-11.74219 -0.54856,-8.64315 -3.70673,-13.11655 -9.94506,-17.26841 -4.19054,-2.33817 -7.87271,-4.42156 -15.09512,-3.40988 z"
       id="path4213"
       inkscape:connector-curvature="0"
       sodipodi:nodetypes="cccccccccccc" />
    <path
       style="fill:#ffffff;fill-rule:evenodd;stroke:#000000;stroke-width:2.4000001;stroke-linecap:butt;stroke-linejoin:miter;stroke-miterlimit:4;stroke-dasharray:none;stroke-opacity:1"
       d="m 121.41715,709.05907 c -5.90476,2.69532 -9.42406,7.89759 -11.30469,13.94336 -1.96951,6.08707 0.23258,14.76946 3.03516,19.59766 2.91242,4.69957 8.75858,8.36457 15.35742,9.55273 0.52631,0.0842 1.48101,-0.52097 2.24896,-0.36698 0.90803,0.18207 1.62087,0.92475 2.21588,1.617 l 19.59766,-2.54492 3.98242,-1.28711 -2.59766,-0.92578 c 4.36562,-6.04196 7.29506,-12.52142 6.82813,-21.65625 -1.03762,-6.09055 -2.60946,-12.60293 -7.38086,-17.59863 -5.06358,-5.59837 -14.42337,-7.03747 -21.65292,-6.98939 -6.26339,0.18614 -10.51357,3.09501 -10.3295,6.65831 z"
       id="path4218"
       inkscape:connector-curvature="0"
       sodipodi:nodetypes="ccccscccccccc" />
    <circle
       style="opacity:1;fill:#000000;fill-opacity:1;stroke:none;stroke-width:2.70000005;stroke-linecap:round;stroke-linejoin:round;stroke-miterlimit:4;stroke-dasharray:none;stroke-dashoffset:0.75;stroke-opacity:1"
       id="path4156"
       cx="167.37857"
       cy="810.98944"
       r="8.4915953" />
    <path
       style="fill:#e61414;fill-opacity:1;fill-rule:evenodd;stroke:#000000;stroke-width:3.9000001;stroke-linecap:butt;stroke-linejoin:miter;stroke-miterlimit:4;stroke-dasharray:none;stroke-opacity:1"
       d="m 70.96067,859.96591 -0.37881,52.57543 c -0.38491,23.0104 -0.92649,39.51341 4.88271,60.9146 6.70539,26.54405 21.98001,52.02556 41.03182,71.33146 7.60006,7.1494 8.02847,7.4737 15.62153,1.0309 17.77263,-17.9413 28.98478,-37.048 37.23561,-59.95953 8.06763,-24.66312 9.13114,-51.28066 10.17857,-76.07143 l 0.71429,-44.82142 c 0.11273,-4.18061 -0.97355,-5.78447 -5.02364,-5.94173 l -66.5909,-2.16751 -31.441,-0.88388 c -5.92642,-0.3955 -6.27482,-0.3087 -6.23018,3.99311 z"
       id="path4174"
       inkscape:connector-curvature="0"
       sodipodi:nodetypes="cccccccccccc" />
    <path
       inkscape:connector-curvature="0"
       style="opacity:1;fill:#0000ff;fill-rule:evenodd;stroke:none;stroke-width:1px;stroke-linecap:butt;stroke-linejoin:miter;stroke-opacity:1"
       d="m 88.99723,867.62157 0,22.96875 16.875,0 0,-7.85742 36.34765,0 -0.16992,11.87109 14.75977,-0.0176 c 0.60151,0 1.28151,0.0281 2.01367,0.10157 l 0.79883,-25.16797 -70.625,-1.89844 z m 52.87695,39.36328 -0.4668,32.62305 1.04297,0.0176 11.38672,0 c 1.8083,0 2.81231,-0.20557 3.58398,-0.70703 l 0.98438,-31.06446 c -0.52685,-0.4882 -1.25055,-0.86914 -2.61133,-0.86914 l -13.91992,0 z"
       id="path4166" />
    <path
       style="opacity:1;fill:#000000;fill-opacity:1;fill-rule:evenodd;stroke:none;stroke-width:1px;stroke-linecap:butt;stroke-linejoin:miter;stroke-opacity:1"
       d="m 105.96068,973.44806 -7.56697,0 -3.78348,0 -3.78348,0 c 1.55523,6.79805 3.95457,13.34963 7.44129,19.2522 4.78835,7.33744 8.68033,13.55734 15.64812,18.79844 4.8761,3.3182 11.58181,3.2879 16.5727,0.4304 4.55114,-2.8394 8.51162,-5.6736 11.08599,-10.5977 2.09639,-3.75857 4.30314,-7.49712 6.04148,-11.44538 1.72683,-3.92212 3.11752,-7.99464 4.33345,-12.10395 1.21046,-4.09083 2.16688,-8.26084 2.93737,-12.45685 0.76317,-4.15613 1.30786,-8.38669 1.66384,-12.56718 l -4.0564,0 -4.05639,0 -4.0564,0 -4.05639,0 c -1.20134,6.08235 -2.07866,12.11339 -3.43117,17.88079 -1.47518,6.06854 -3.30491,12.12783 -6.63352,17.26219 -4.66542,7.93305 -12.42899,7.92022 -17.18534,0.61312 -0.66469,-1.01922 -1.27499,-2.07327 -1.88357,-3.12696 -0.59907,-1.03722 -1.21597,-2.06695 -1.73967,-3.1442 -0.4982,-1.02481 -0.91093,-2.0895 -1.33006,-3.1491 -0.39043,-0.98704 -0.72282,-1.99619 -1.10298,-2.98723 -0.34162,-0.89057 -0.69276,-1.8457 -1.05842,-2.65859 z"
       id="path4151"
       inkscape:connector-curvature="0"
       sodipodi:nodetypes="ccccccccaaaccccccccaaaac" />
    <path
       style="opacity:1;fill:#000000;fill-rule:evenodd;stroke:none;stroke-width:1px;stroke-linecap:butt;stroke-linejoin:miter;stroke-opacity:1"
       d="m 88.99704,867.62112 0,22.9698 16.87435,0 0,-7.85715 36.34806,0 -0.81235,56.875 15.98215,0.26786 2.23214,-70.35714 z"
       id="path4153"
       inkscape:connector-curvature="0"
       sodipodi:nodetypes="ccccccccc" />
    <path
       inkscape:connector-curvature="0"
       style="fill:#ffffff;fill-rule:evenodd;stroke:none;stroke-width:2;stroke-linecap:butt;stroke-linejoin:miter;stroke-miterlimit:4;stroke-dasharray:none;stroke-opacity:1"
       d="m 142.04996,894.60399 -31.05078,0.0391 0,78.62696 16.21094,0 0,-20.98242 29.49804,0 c 6.02402,-0.0229 8.14593,-0.76325 11.48438,-4.73243 3.74931,-4.42137 3.70636,-9.25354 4.19726,-14.28515 l 0,-23.83985 c 0,-4.98421 -2.46755,-9.84166 -5.24609,-11.69726 -3.00854,-2.06623 -5.95944,-2.80793 -8.32031,-3.04492 l -0.41797,13.16406 c 0.25896,0.23978 0.47327,0.50457 0.68555,0.76562 0.53067,0.75604 0.97656,1.27797 0.97656,4.65235 l 0,19.70898 c 0,2.21947 -0.49346,3.18967 -1.36133,4.66602 -1.12766,1.45162 -1.9552,1.98047 -4.86914,1.98047 l -26.10742,0 0,-32.64063 14.14453,0 0.17578,-12.38086 z"
       id="path4161" />
    <g
       id="g4279"
       transform="translate(-135.82504,538.49657)">
      <path
         sodipodi:nodetypes="csscsssssscsccccsccscsscsssssssscccccccscsssccsscsssssssssccccsssssccccssssscccccccsscssscscscccccsscccccccccccssccccc"
         inkscape:connector-curvature="0"
         id="path4197"
         d="m 174.49082,175.66289 c -1.03272,0 -3.46434,3.4602 -5.70703,8.12305 -1.79973,3.7419 -3.28154,8.90873 -4.15234,14.4746 -0.24343,1.55591 -0.53319,3.33438 -0.64453,3.95313 -0.11136,0.61875 -0.3269,2.23836 -0.47852,3.59961 -0.15161,1.36125 -0.45438,3.69078 -0.67383,5.17578 -0.21945,1.485 -0.51818,5.02875 -0.66406,7.875 -0.14587,2.84625 -0.37573,6.39 -0.50977,7.875 -0.13404,1.485 -0.31379,3.51 -0.40039,4.5 -0.0866,0.99 -0.2862,4.22922 -0.4414,7.19922 -0.259,4.95648 -0.55765,9.88511 -0.91407,15.07617 -0.0765,1.11375 -0.2731,5.46633 -0.4375,9.67383 -0.16441,4.2075 -0.37058,8.46117 -0.45898,9.45117 -0.28225,3.16165 -1.1258,17.74615 -1.31445,22.72461 -0.061,1.60875 -0.14425,3.78601 -0.18555,4.83789 -0.0587,1.49584 -0.24734,1.9093 -0.86328,1.9043 -1.04056,-0.009 -7.74145,-1.6769 -8.88867,-2.21289 -4.96526,-2.3198 -10.48109,-4.21131 -11.33203,-3.88477 -0.48402,0.18575 -0.62086,1.08774 -0.56446,3.73828 0.0409,1.92103 0.0311,5.79016 -0.0215,8.59961 -0.059,3.15112 0.0902,5.29332 0.38672,5.58985 0.34092,0.34092 0.58205,0.20309 0.83203,-0.47266 0.32855,-0.88816 0.44389,-0.90916 1.70117,-0.31641 3.84781,1.81411 6.1034,2.63562 8.54883,3.11328 2.00132,0.39095 2.64899,0.69537 2.5,1.17774 -0.55227,1.78808 -0.49031,5.65454 0.10351,6.45508 0.55115,0.74301 0.52922,1.13104 -0.16015,2.94531 -1.22291,3.21842 -1.04961,5.93962 0.51367,8.09766 1.056,1.45777 1.22619,2.00924 0.89258,2.88671 -0.45904,1.20736 -0.25453,3.08295 0.60937,5.59571 0.6995,2.03457 3.67405,4.29492 5.65235,4.29492 0.75053,0 1.36328,0.0423 1.36328,0.0937 0,0.0442 -0.25733,0.80135 -0.53125,1.58789 -1.23887,2.04398 -1.89661,4.38723 -1.90235,6.77734 -3.1e-4,7.25534 5.88138,13.13703 13.13672,13.13672 6.34394,-0.002 11.77975,-4.53829 12.91797,-10.77929 0.0142,-0.0385 0.026,-0.0666 0.041,-0.10938 l 1.00781,-2.86719 0.75586,1.45899 c 0.41513,0.80278 0.84183,1.99184 0.94922,2.64258 0.26496,1.60564 2.46602,8.32909 2.81836,8.60937 0.15556,0.12375 0.68664,1.02832 1.18164,2.01172 1.25633,2.4959 3.30735,4.73828 4.33398,4.73828 1.13888,0 6.60574,-2.80272 8.0586,-4.13086 1.73143,-1.58281 3.37695,-3.23437 3.37695,-3.23437 2.23525,-4.72249 2.75314,-43.15973 0.0898,-45.22461 -0.11346,0.0719 -0.4669,-0.16476 -0.67187,-0.22266 -2.10172,-0.5937 -4.53774,-0.71613 -5.96094,-0.29883 -1.13535,0.33289 -1.62229,0.32061 -1.74414,-0.0449 -0.41905,-1.25714 -1.93834,-2.19531 -3.55664,-2.19531 -1.14634,0 -1.952,-0.29395 -2.47461,-0.9043 -0.98686,-1.15256 -0.97433,-1.3457 0.0918,-1.3457 1.18149,0 8.40019,-1.96117 10.55859,-2.86914 1.31024,-0.55118 1.90094,-0.60964 2.35547,-0.23242 0.95607,0.79346 1.07185,-0.049 1.1875,-8.69532 0.10147,-7.58568 0.0642,-7.98506 -0.79297,-8.36914 -0.59793,-0.26792 -1.20296,-0.20743 -1.80078,0.17969 -0.90997,0.58925 -7.46471,2.60033 -9.91797,3.04297 -0.73235,0.13214 -1.73742,0.32787 -2.23242,0.43359 -0.495,0.10573 -1.65977,0.32849 -2.58789,0.4961 l -1.6875,0.30468 -0.0332,-5.53125 c -0.0189,-3.04309 -0.10931,-5.92745 -0.19921,-6.4082 -0.0899,-0.48075 -0.21566,-7.66911 -0.28126,-15.97461 -0.11055,-13.98867 -0.25886,-19.69812 -1.04101,-40.30078 -0.77062,-20.29901 -1.1543,-28.08519 -1.62109,-32.84961 -0.50509,-5.1554 -0.55574,-5.4562 -2.03125,-12.20898 -1.57004,-7.18534 -4.22924,-12.76758 -6.08399,-12.76758 z m 1.01359,7.11698 c 1.6717,3.71461 2.37754,8.16622 3.22859,11.78341 0.86452,3.54313 1.69389,10.83391 1.86914,16.42578 0.3255,10.38587 0.71276,21.29576 0.9043,25.48047 0.10622,2.32073 0.30333,15.55992 0.4375,29.41992 0.13416,13.86 0.37114,27.27562 0.52734,29.8125 0.16865,2.73908 0.11507,4.61133 -0.13281,4.61133 -0.22958,0 -2.32911,-1.93814 -4.66406,-4.30664 l -3.97629,-3.41183 -2.57844,-2.26483 -3.42773,2.66689 c -0.26747,0.32228 -1.903,1.84163 -3.63476,3.37696 l -3.14844,2.79101 0.29687,-3.8125 c 0.16295,-2.09742 0.39883,-6.24289 0.52344,-9.21289 0.12461,-2.97 0.34172,-6.81828 0.48438,-8.55078 0.14265,-1.7325 0.31416,-3.85836 0.38086,-4.72461 0.12447,-1.616 0.48337,-9.20339 0.95312,-20.13867 0.1462,-3.40313 0.34074,-6.99633 0.43164,-7.98633 0.0909,-0.99 0.28814,-4.92735 0.4375,-8.75 0.14936,-3.82264 0.36337,-7.10005 0.47656,-7.2832 0.11322,-0.18314 0.3079,-2.72618 0.43165,-5.65039 0.20959,-4.95264 0.93691,-13.76304 1.34961,-16.3418 0.099,-0.61875 0.3949,-2.634 0.65624,-4.47852 0.75873,-5.35483 2.9734,-13.40695 4.79493,-17.42968 0.26543,-0.67205 0.49361,-1.32818 0.76514,-1.93042 0.32425,-0.83712 0.90393,-1.50178 1.48714,-1.99385 0.54436,0.48629 0.78859,1.19228 1.12658,1.89867 z m -22.03313,137.13497 c 1.38738,-0.0419 4.60082,0.43565 5.24219,0.83203 0.17128,0.10586 1.92714,0.31243 3.90234,0.46094 1.97521,0.14851 4.90688,0.38363 6.51563,0.52149 1.73983,0.14908 3.47246,0.0425 4.27539,-0.26368 6.67315,-0.79482 21.86431,1.45761 26.52567,5.49359 1.01502,1.08044 1.02035,1.14279 0.27344,2.7168 -9.05008,19.78127 -17.61616,17.25234 -19.25029,17.4361 -6.02201,-2.62785 -3.55493,-1.30449 -13.44137,-2.84179 -0.99869,-0.015 -1.85015,-0.0174 -2.57422,-0.006 -0.33078,0.005 -0.56986,0.0227 -0.82617,0.0371 8e-4,-3.6e-4 0.001,-0.002 0.002,-0.002 -0.0226,9.1e-4 -0.0382,0.003 -0.0606,0.004 -0.0565,0.003 -0.12335,0.005 -0.18164,0.008 l -0.008,0.004 c -1.38726,0.0691 -2.20356,0.21315 -2.52344,0.47852 -1.10003,0.91258 -4.16392,0.24213 -5.50586,-1.20508 -3.71245,-9.03147 -3.55017,-13.18602 -3.80468,-22.3125 0,0 0.32515,-1.14225 0.96875,-1.31055 0.1108,-0.029 0.2725,-0.0448 0.4707,-0.0508 z"
         style="opacity:1;fill:#000000" />
      <g
         id="g4275" />
    </g>
    <path
       style="fill:none;fill-rule:evenodd;stroke:#000000;stroke-width:2.4000001;stroke-linecap:butt;stroke-linejoin:miter;stroke-miterlimit:4;stroke-dasharray:none;stroke-opacity:1"
       d="M 161.58567,805.14449 126.13925,780.6802 c -8.58325,6.7396 -22.16412,17.57977 -22.19921,25.99355 0.28624,6.40732 12.0231,21.08021 17.37778,27.84574 l 1.33928,1.25 40.08929,-19.28572"
       id="path4160"
       inkscape:connector-curvature="0"
       sodipodi:nodetypes="cccccc" />
    <path
       style="fill:#000000;fill-rule:evenodd;stroke:none;stroke-width:1px;stroke-linecap:butt;stroke-linejoin:miter;stroke-opacity:1"
       d="m 121.38505,835.95915 -0.44194,19.69797 1.57836,0 c 0.0203,-9.50061 1.25293,-11.09598 5.49271,-17.42513 5.09505,-5.05623 10.28134,-7.87426 15.34169,-11.42735 z"
       id="path4183"
       inkscape:connector-curvature="0"
       sodipodi:nodetypes="cccccc" />
    <path
       style="fill:none;fill-rule:evenodd;stroke:#000000;stroke-width:2.0999999;stroke-linecap:butt;stroke-linejoin:miter;stroke-miterlimit:4;stroke-dasharray:none;stroke-opacity:1"
       d="m 126.56208,780.01878 c 4.00549,-9.49313 9.64465,-14.58222 17.362,-17.35882 7.71604,-2.51832 14.25602,-2.21629 22.41276,-1.26269 9.23249,2.02292 13.12203,5.95075 17.80394,11.36421 3.75663,4.96071 5.59698,10.96331 7.1342,16.92006 2.04219,8.36778 1.56303,16.95184 1.7678,27.08471 -0.0558,8.36512 -1.68606,16.56474 -3.97748,24.3068 -2.52412,6.98836 -5.56652,17.12874 -9.84899,17.96177"
       id="path4185"
       inkscape:connector-curvature="0"
       sodipodi:nodetypes="cccccccc" />
    <path
       style="fill:#000000;fill-rule:evenodd;stroke:none;stroke-width:1px;stroke-linecap:butt;stroke-linejoin:miter;stroke-opacity:1"
       d="m 144.19728,761.50609 c 0.65353,-1.75638 0.1898,-2.83746 -0.49107,-4.1741 -1.31124,-1.569 -2.33781,-1.56929 -4.01785,-1.5625 -2.0544,0.12292 -4.26132,1.28934 -6.20536,2.34375 l -3.00148,-2.33035 c -1.43753,-0.96498 -1.03677,-1.86765 0.36412,-2.56493 9.1932,-4.32207 16.55892,-5.53424 26.27356,-5.45779 8.88078,0.11502 15.33686,2.55003 20.96066,6.43972 13.51129,9.97953 19.54961,20.48362 21.27634,37.81758 2.44394,16.98991 -1.77403,31.69334 -5.4927,47.3509 -3.00807,9.40978 -8.3244,18.93775 -12.37437,26.76905 l -2.46225,-4.67196 1.57837,-2.71478 4.29314,-5.87151 2.96733,-7.57615 3.78807,-13.57392 1.51523,-10.66974 0.0631,-14.14214 -0.75761,-12.69004 -3.21986,-12.69004 -3.91434,-6.88166 -4.86136,-5.74525 -6.62913,-5.42957 -9.40705,-2.2097 -12.50063,-0.0631 -8.01809,1.4521 z"
       id="path4189"
       inkscape:connector-curvature="0"
       sodipodi:nodetypes="ccccccccccccccccccccccccccc" />
  </g>
</svg>
