<?xml version="1.0" encoding="UTF-8" standalone="no"?>
<!-- Created with Inkscape (http://www.inkscape.org/) -->

<svg
   xmlns:dc="http://purl.org/dc/elements/1.1/"
   xmlns:cc="http://creativecommons.org/ns#"
   xmlns:rdf="http://www.w3.org/1999/02/22-rdf-syntax-ns#"
   xmlns:svg="http://www.w3.org/2000/svg"
   xmlns="http://www.w3.org/2000/svg"
   xmlns:sodipodi="http://sodipodi.sourceforge.net/DTD/sodipodi-0.dtd"
   xmlns:inkscape="http://www.inkscape.org/namespaces/inkscape"
   width="62.262001mm"
   height="99.106003mm"
   viewBox="0 0 220.61339 351.163"
   id="svg2"
   version="1.1"
   inkscape:version="0.91 r13725"
   sodipodi:docname="jp-logo-sq.svg">
  <defs
     id="defs4" />
  <sodipodi:namedview
     id="base"
     pagecolor="#ffffff"
     bordercolor="#666666"
     borderopacity="1.0"
     inkscape:pageopacity="0.0"
     inkscape:pageshadow="2"
     inkscape:zoom="7.9195959"
     inkscape:cx="135.49779"
     inkscape:cy="327.47521"
     inkscape:document-units="px"
     inkscape:current-layer="g4269"
     showgrid="false"
     inkscape:window-width="1920"
     inkscape:window-height="1017"
     inkscape:window-x="-8"
     inkscape:window-y="-8"
     inkscape:window-maximized="1"
     showguides="true" />
  <metadata
     id="metadata7">
    <rdf:RDF>
      <cc:Work
         rdf:about="">
        <dc:format>image/svg+xml</dc:format>
        <dc:type
           rdf:resource="http://purl.org/dc/dcmitype/StillImage" />
        <dc:title />
      </cc:Work>
    </rdf:RDF>
  </metadata>
  <g
     inkscape:label="Layer 1"
     inkscape:groupmode="layer"
     id="layer1"
     transform="translate(0,-701.19921)">
    <path
       style="fill:#ffffff;fill-rule:evenodd;stroke:#000000;stroke-width:1px;stroke-linecap:butt;stroke-linejoin:miter;stroke-opacity:1"
       d="m 121.25878,856.98295 1.51523,-17.9302 -0.88388,-3.85121 -6.25032,-7.63928 -11.21645,-16.9103 -0.71428,-6.25 4.82142,-8.39285 10.53572,-9.46429 7.67857,-6.42857 3.03571,-6.07143 3.75,-5.17857 10.35715,-6.25 9.28571,-3.21429 20.89286,0.53572 15.35714,15.17857 5.89286,18.75 -0.35714,24.82143 -4.46429,21.96428 -8.75,17.85715 -4.64286,1.60714 z"
       id="path4311"
       inkscape:connector-curvature="0" />
    <path
       style="fill:#ffffff;fill-rule:evenodd;stroke:#000000;stroke-width:1px;stroke-linecap:butt;stroke-linejoin:miter;stroke-opacity:1"
       d="m 1.7447944,847.34839 0.089286,3.03572 3.0357143,1.51785 8.7499993,2.67857 1.875,1.16072 -0.446429,3.21428 0.625,5.17858 -0.892857,5.53571 1.339286,4.91071 1.428571,5.26786 2.857143,4.28572 5.178572,1.25 13.75,0.44642 6.875,4.64286 3.125,3.48214 4.732143,12.5 2.857143,4.91072 1.875,0.0893 9.196428,-12.58928 3.482143,-9.91072 -0.714286,-23.03571 -0.982143,-3.21429 c 0,0 -6.25,-0.44642 -6.696428,-0.53571 -0.446429,-0.0893 -4.642857,-1.25 -4.642857,-1.25 l -5.625,-3.30357 -0.08929,-1.51786 1.785714,-0.89286 6.875,-1.33928 5.357143,-2.14286 -1.160714,-6.51786 -14.285714,-0.17857 -4.732143,-2.05357 1.964285,-3.66071 -2.410714,-97.32143 -3.303571,-16.875 -3.214286,-7.67857 -1.875,-0.44643 -3.75,5.89286 -5.446429,25.80357 -2.5,41.07143 -3.03571,54.82141 -6.428571,-0.53572 -10.8928576,0.53572 z"
       id="path4309"
       inkscape:connector-curvature="0" />
    <g
       id="g4269"
       transform="translate(-135.82504,538.49657)"
       inkscape:export-xdpi="200"
       inkscape:export-ydpi="200">
      <path
         sodipodi:nodetypes="ccccccccccc"
         inkscape:connector-curvature="0"
         id="path4191"
         d="m 336.00199,322.77953 -6.81853,6.69226 c -5.90327,6.2504 -9.7867,12.40088 -11.74302,20.58186 l -1.13642,12.87944 -1.01016,23.23351 1.51523,2.77792 c 1.91774,2.09358 4.15606,3.07994 6.69226,4.16688 -2.4588,-3.54691 -2.20307,-6.55999 -2.27284,-10.6066 0.30622,-10.55825 4.21733,-20.13244 10.48033,-27.90547 5.71004,-6.00767 8.56761,-12.83286 9.09138,-20.20305 0.60182,-5.56382 -0.93149,-8.08625 -4.79823,-11.61675 z"
         style="fill:#ffffff;fill-rule:evenodd;stroke:#000000;stroke-width:2.5;stroke-linecap:butt;stroke-linejoin:miter;stroke-miterlimit:4;stroke-dasharray:none;stroke-opacity:1" />
      <path
         sodipodi:nodetypes="ccccccccccc"
         inkscape:connector-curvature="0"
         id="path4193"
         d="m 342.75781,292.16016 c -3.54447,3.15144 -9.1649,6.7303 -14.71093,8.08007 l -10.10157,20.51954 -2.39843,16.03515 1.86132,13.62305 0.0332,-0.36524 c 1.95632,-8.18098 5.83891,-14.32967 11.74218,-20.58007 l 2.56641,-2.51954 c 1.11993,-1.19359 2.30683,-2.41794 3.68359,-3.79492 5.61917,-4.25285 11.45963,-12.22499 12.1211,-16.91992 0.67663,-6.19369 -0.93301,-11.7242 -4.79688,-14.07812 z"
         style="fill:#e61414;fill-opacity:1;fill-rule:evenodd;stroke:#000000;stroke-width:2.5;stroke-linecap:butt;stroke-linejoin:miter;stroke-miterlimit:4;stroke-dasharray:none;stroke-opacity:1" />
      <path
         sodipodi:nodetypes="cccccccccc"
         inkscape:connector-curvature="0"
         id="path4198"
         d="m 347.74414,257.5625 c -4.804,3.99445 -7.90639,4.45961 -12.87891,3.66016 l -2.90429,24.30664 -4.54492,14.96289 0.49414,0.0254 0.13672,-0.27735 c 5.54603,-1.34977 11.16646,-4.92863 14.71093,-8.08007 4.18604,-4.01849 7.3503,-7.40973 9.01451,-12.13979 1.67738,-5.78196 2.50269,-9.64091 0.63895,-16.65486 -1.06972,-3.0978 -2.3965,-4.82823 -4.66713,-5.80302 z"
         style="fill:#ffffff;fill-rule:evenodd;stroke:#000000;stroke-width:2.5;stroke-linecap:butt;stroke-linejoin:miter;stroke-miterlimit:4;stroke-dasharray:none;stroke-opacity:1" />
      <path
         sodipodi:nodetypes="cccccccccccc"
         inkscape:connector-curvature="0"
         id="path4203"
         d="m 343.125,217.89844 c -1.71023,3.91046 -2.587,5.57891 -5.71187,8.90533 -2.25482,2.51896 -6.41389,4.87067 -10.29977,4.81647 l 2.97648,13.7782 0.625,7.85742 3.20313,9.16797 0.78125,0.1875 0.16601,-1.38867 c 4.97252,0.79945 8.07491,0.33429 12.87891,-3.66016 3.95685,-3.93416 6.53723,-9.50762 7.21094,-14.75391 0.90193,-8.08394 -0.73379,-15.42878 -5.89258,-20.89257 -1.84618,-1.69391 -3.62427,-3.13807 -5.9375,-4.01758 z"
         style="fill:#e61414;fill-opacity:1;fill-rule:evenodd;stroke:#000000;stroke-width:2.5;stroke-linecap:butt;stroke-linejoin:miter;stroke-miterlimit:4;stroke-dasharray:none;stroke-opacity:1" />
      <path
         sodipodi:nodetypes="cccccccccccc"
         inkscape:connector-curvature="0"
         id="path4208"
         d="m 325.96289,187.48242 c 0.62018,4.05678 0.10277,7.33784 -1.04011,11.74282 -2.58092,7.94715 -7.80724,12.62927 -13.66887,15.97398 l 3.2832,8.58594 9.5332,8.08007 3.36719,1.25977 -0.32422,-1.50391 c 3.88588,0.0542 8.04596,-2.29744 10.30078,-4.8164 3.12487,-3.32642 4.00071,-4.99579 5.71094,-8.90625 3.3293,-6.63803 4.0394,-12.85106 1.46289,-19.24219 -1.60108,-3.45186 -3.63778,-7.16885 -6.83427,-9.11077 -3.8446,-2.0637 -7.36395,-2.25169 -11.79073,-2.06306 z"
         style="fill:#ffffff;fill-rule:evenodd;stroke:#000000;stroke-width:2.5;stroke-linecap:butt;stroke-linejoin:miter;stroke-miterlimit:4;stroke-dasharray:none;stroke-opacity:1" />
      <path
         sodipodi:nodetypes="cccccccccccc"
         inkscape:connector-curvature="0"
         id="path4213"
         d="m 300.92271,166.80413 c -5.00131,1.15451 -8.49325,2.33862 -11.69894,5.35184 5.46588,3.79615 6.34408,10.24567 7.3817,16.33622 0.46693,9.13483 -2.46222,15.61429 -6.82784,21.65625 L 300,213.79102 l 10.17773,2.32031 1.375,-0.13086 -0.29882,-0.78125 c 5.86163,-3.34471 11.08705,-8.02746 13.66797,-15.97461 1.14287,-4.40498 1.66119,-7.68541 1.04101,-11.74219 -0.54856,-8.64315 -3.70673,-13.11655 -9.94506,-17.26841 -4.19054,-2.33817 -7.87271,-4.42156 -15.09512,-3.40988 z"
         style="fill:#e61414;fill-opacity:1;fill-rule:evenodd;stroke:#000000;stroke-width:2.5;stroke-linecap:butt;stroke-linejoin:miter;stroke-miterlimit:4;stroke-dasharray:none;stroke-opacity:1" />
      <path
         sodipodi:nodetypes="ccccscccccccc"
         inkscape:connector-curvature="0"
         id="path4218"
         d="m 257.24219,170.5625 c -5.90476,2.69532 -9.42406,7.89759 -11.30469,13.94336 -1.96951,6.08707 0.23258,14.76946 3.03516,19.59766 2.91242,4.69957 8.75858,8.36457 15.35742,9.55273 0.52631,0.0842 1.48101,-0.52097 2.24896,-0.36698 0.90803,0.18207 1.62087,0.92475 2.21588,1.617 l 19.59766,-2.54492 3.98242,-1.28711 -2.59766,-0.92578 c 4.36562,-6.04196 7.29506,-12.52142 6.82813,-21.65625 -1.03762,-6.09055 -2.60946,-12.60293 -7.38086,-17.59863 -5.06358,-5.59837 -14.42337,-7.03747 -21.65292,-6.98939 -6.26339,0.18614 -10.51357,3.09501 -10.3295,6.65831 z"
         style="fill:#ffffff;fill-rule:evenodd;stroke:#000000;stroke-width:2.4000001;stroke-linecap:butt;stroke-linejoin:miter;stroke-miterlimit:4;stroke-dasharray:none;stroke-opacity:1" />
      <circle
         r="8.4915953"
         cy="272.49289"
         cx="303.20361"
         id="path4156"
         style="opacity:1;fill:#000000;fill-opacity:1;stroke:none;stroke-width:2.70000005;stroke-linecap:round;stroke-linejoin:round;stroke-miterlimit:4;stroke-dasharray:none;stroke-dashoffset:0.75;stroke-opacity:1" />
      <path
         sodipodi:nodetypes="cccccccccccc"
         inkscape:connector-curvature="0"
         id="path4174"
         d="m 206.78571,321.46934 -0.37881,52.57543 c -0.38491,23.0104 -0.92649,39.51341 4.88271,60.9146 6.70539,26.54405 21.98001,52.02557 41.03182,71.33141 7.60006,7.14948 8.02847,7.4737 15.62153,1.03099 17.77263,-17.94134 28.98478,-37.04804 37.23561,-59.95957 8.06763,-24.66312 9.13114,-51.28066 10.17857,-76.07143 l 0.71429,-44.82142 c 0.11273,-4.18061 -0.97355,-5.78447 -5.02364,-5.94173 l -66.5909,-2.16751 -31.441,-0.88388 c -5.92642,-0.3955 -6.27482,-0.3087 -6.23018,3.99311 z"
         style="fill:#e61414;fill-opacity:1;fill-rule:evenodd;stroke:#000000;stroke-width:3.9000001;stroke-linecap:butt;stroke-linejoin:miter;stroke-miterlimit:4;stroke-dasharray:none;stroke-opacity:1" />
      <path
         id="path4166"
         d="m 224.82227,329.125 0,22.96875 16.875,0 0,-7.85742 36.34765,0 -0.16992,11.87109 14.75977,-0.0176 c 0.60151,0 1.28151,0.0281 2.01367,0.10157 l 0.79883,-25.16797 -70.625,-1.89844 z m 52.87695,39.36328 -0.4668,32.62305 1.04297,0.0176 11.38672,0 c 1.8083,0 2.81231,-0.20557 3.58398,-0.70703 l 0.98438,-31.06446 c -0.52685,-0.4882 -1.25055,-0.86914 -2.61133,-0.86914 l -13.91992,0 z"
         style="opacity:1;fill:#0000ff;fill-rule:evenodd;stroke:none;stroke-width:1px;stroke-linecap:butt;stroke-linejoin:miter;stroke-opacity:1"
         inkscape:connector-curvature="0" />
      <path
         sodipodi:nodetypes="ccccccccaaaccccccccaaaac"
         inkscape:connector-curvature="0"
         id="path4151"
         d="m 241.78572,434.95149 -7.56697,0 -3.78348,0 -3.78348,0 c 1.55523,6.79805 3.95457,13.34963 7.44129,19.2522 4.78835,7.33747 8.68033,13.55729 15.64812,18.79845 4.8761,3.31823 11.58181,3.28784 16.5727,0.43042 4.55114,-2.83947 8.51162,-5.67368 11.08599,-10.59778 2.09639,-3.75852 4.30314,-7.49707 6.04148,-11.44533 1.72683,-3.92212 3.11752,-7.99464 4.33345,-12.10395 1.21046,-4.09083 2.16688,-8.26084 2.93737,-12.45685 0.76317,-4.15613 1.30786,-8.38669 1.66384,-12.56718 l -4.0564,0 -4.05639,0 -4.0564,0 -4.05639,0 c -1.20134,6.08235 -2.07866,12.11339 -3.43117,17.88079 -1.47518,6.06854 -3.30491,12.12783 -6.63352,17.26219 -4.66542,7.93305 -12.42899,7.92022 -17.18534,0.61312 -0.66469,-1.01922 -1.27499,-2.07327 -1.88357,-3.12696 -0.59907,-1.03722 -1.21597,-2.06695 -1.73967,-3.1442 -0.4982,-1.02481 -0.91093,-2.0895 -1.33006,-3.1491 -0.39043,-0.98704 -0.72282,-1.99619 -1.10298,-2.98723 -0.34162,-0.89057 -0.69276,-1.8457 -1.05842,-2.65859 z"
         style="opacity:1;fill:#000000;fill-opacity:1;fill-rule:evenodd;stroke:none;stroke-width:1px;stroke-linecap:butt;stroke-linejoin:miter;stroke-opacity:1" />
      <path
         sodipodi:nodetypes="ccccccccc"
         inkscape:connector-curvature="0"
         id="path4153"
         d="m 224.82208,329.12455 0,22.9698 16.87435,0 0,-7.85715 36.34806,0 -0.81235,56.875 15.98215,0.26786 2.23214,-70.35714 z"
         style="opacity:1;fill:#000000;fill-rule:evenodd;stroke:none;stroke-width:1px;stroke-linecap:butt;stroke-linejoin:miter;stroke-opacity:1" />
      <path
         id="path4161"
         d="m 277.875,356.10742 -31.05078,0.0391 0,78.62696 16.21094,0 0,-20.98242 29.49804,0 c 6.02402,-0.0229 8.14593,-0.76325 11.48438,-4.73243 3.74931,-4.42137 3.70636,-9.25354 4.19726,-14.28515 l 0,-23.83985 c 0,-4.98421 -2.46755,-9.84166 -5.24609,-11.69726 -3.00854,-2.06623 -5.95944,-2.80793 -8.32031,-3.04492 l -0.41797,13.16406 c 0.25896,0.23978 0.47327,0.50457 0.68555,0.76562 0.53067,0.75604 0.97656,1.27797 0.97656,4.65235 l 0,19.70898 c 0,2.21947 -0.49346,3.18967 -1.36133,4.66602 -1.12766,1.45162 -1.9552,1.98047 -4.86914,1.98047 l -26.10742,0 0,-32.64063 14.14453,0 0.17578,-12.38086 z"
         style="fill:#ffffff;fill-rule:evenodd;stroke:#000000;stroke-width:2;stroke-linecap:butt;stroke-linejoin:miter;stroke-miterlimit:4;stroke-dasharray:none;stroke-opacity:1"
         inkscape:connector-curvature="0" />
      <g
         id="g4279">
        <path
           style="opacity:1;fill:#000000"
           d="m 174.49082,175.66289 c -1.03272,0 -3.46434,3.4602 -5.70703,8.12305 -1.79973,3.7419 -3.28154,8.90873 -4.15234,14.4746 -0.24343,1.55591 -0.53319,3.33438 -0.64453,3.95313 -0.11136,0.61875 -0.3269,2.23836 -0.47852,3.59961 -0.15161,1.36125 -0.45438,3.69078 -0.67383,5.17578 -0.21945,1.485 -0.51818,5.02875 -0.66406,7.875 -0.14587,2.84625 -0.37573,6.39 -0.50977,7.875 -0.13404,1.485 -0.31379,3.51 -0.40039,4.5 -0.0866,0.99 -0.2862,4.22922 -0.4414,7.19922 -0.259,4.95648 -0.55765,9.88511 -0.91407,15.07617 -0.0765,1.11375 -0.2731,5.46633 -0.4375,9.67383 -0.16441,4.2075 -0.37058,8.46117 -0.45898,9.45117 -0.28225,3.16165 -1.1258,17.74615 -1.31445,22.72461 -0.061,1.60875 -0.14425,3.78601 -0.18555,4.83789 -0.0587,1.49584 -0.24734,1.9093 -0.86328,1.9043 -1.04056,-0.009 -7.74145,-1.6769 -8.88867,-2.21289 -4.96526,-2.3198 -10.48109,-4.21131 -11.33203,-3.88477 -0.48402,0.18575 -0.62086,1.08774 -0.56446,3.73828 0.0409,1.92103 0.0311,5.79016 -0.0215,8.59961 -0.059,3.15112 0.0902,5.29332 0.38672,5.58985 0.34092,0.34092 0.58205,0.20309 0.83203,-0.47266 0.32855,-0.88816 0.44389,-0.90916 1.70117,-0.31641 3.84781,1.81411 6.1034,2.63562 8.54883,3.11328 2.00132,0.39095 2.64899,0.69537 2.5,1.17774 -0.55227,1.78808 -0.49031,5.65454 0.10351,6.45508 0.55115,0.74301 0.52922,1.13104 -0.16015,2.94531 -1.22291,3.21842 -1.04961,5.93962 0.51367,8.09766 1.056,1.45777 1.22619,2.00924 0.89258,2.88671 -0.45904,1.20736 -0.25453,3.08295 0.60937,5.59571 0.6995,2.03457 3.67405,4.29492 5.65235,4.29492 0.75053,0 1.36328,0.0423 1.36328,0.0937 0,0.0442 -0.25733,0.80135 -0.53125,1.58789 -1.23887,2.04398 -1.89661,4.38723 -1.90235,6.77734 -3.1e-4,7.25534 5.88138,13.13703 13.13672,13.13672 6.34394,-0.002 11.77975,-4.53829 12.91797,-10.77929 0.0142,-0.0385 0.026,-0.0666 0.041,-0.10938 l 1.00781,-2.86719 0.75586,1.45899 c 0.41513,0.80278 0.84183,1.99184 0.94922,2.64258 0.26496,1.60564 2.46602,8.32909 2.81836,8.60937 0.15556,0.12375 0.68664,1.02832 1.18164,2.01172 1.25633,2.4959 3.30735,4.73828 4.33398,4.73828 1.13888,0 6.60574,-2.80272 8.0586,-4.13086 1.73143,-1.58281 3.37695,-3.23437 3.37695,-3.23437 2.23525,-4.72249 2.75314,-43.15973 0.0898,-45.22461 -0.11346,0.0719 -0.4669,-0.16476 -0.67187,-0.22266 -2.10172,-0.5937 -4.53774,-0.71613 -5.96094,-0.29883 -1.13535,0.33289 -1.62229,0.32061 -1.74414,-0.0449 -0.41905,-1.25714 -1.93834,-2.19531 -3.55664,-2.19531 -1.14634,0 -1.952,-0.29395 -2.47461,-0.9043 -0.98686,-1.15256 -0.97433,-1.3457 0.0918,-1.3457 1.18149,0 8.40019,-1.96117 10.55859,-2.86914 1.31024,-0.55118 1.90094,-0.60964 2.35547,-0.23242 0.95607,0.79346 1.07185,-0.049 1.1875,-8.69532 0.10147,-7.58568 0.0642,-7.98506 -0.79297,-8.36914 -0.59793,-0.26792 -1.20296,-0.20743 -1.80078,0.17969 -0.90997,0.58925 -7.46471,2.60033 -9.91797,3.04297 -0.73235,0.13214 -1.73742,0.32787 -2.23242,0.43359 -0.495,0.10573 -1.65977,0.32849 -2.58789,0.4961 l -1.6875,0.30468 -0.0332,-5.53125 c -0.0189,-3.04309 -0.10931,-5.92745 -0.19921,-6.4082 -0.0899,-0.48075 -0.21566,-7.66911 -0.28126,-15.97461 -0.11055,-13.98867 -0.25886,-19.69812 -1.04101,-40.30078 -0.77062,-20.29901 -1.1543,-28.08519 -1.62109,-32.84961 -0.50509,-5.1554 -0.55574,-5.4562 -2.03125,-12.20898 -1.57004,-7.18534 -4.22924,-12.76758 -6.08399,-12.76758 z m 1.01359,7.11698 c 1.6717,3.71461 2.37754,8.16622 3.22859,11.78341 0.86452,3.54313 1.69389,10.83391 1.86914,16.42578 0.3255,10.38587 0.71276,21.29576 0.9043,25.48047 0.10622,2.32073 0.30333,15.55992 0.4375,29.41992 0.13416,13.86 0.37114,27.27562 0.52734,29.8125 0.16865,2.73908 0.11507,4.61133 -0.13281,4.61133 -0.22958,0 -2.32911,-1.93814 -4.66406,-4.30664 l -4.24415,-4.30469 0.0488,-15.38281 c 0.0267,-8.45963 0.12867,-30.4161 0.22656,-48.79297 0.0979,-18.37688 0.0129,-33.41211 -0.1875,-33.41211 -0.61954,0 -0.71372,0.87798 -0.9707,9 -0.13705,4.33125 -0.35138,10.30539 -0.47656,13.27539 -0.12518,2.97 -0.33304,8.13336 -0.46094,11.47461 -0.12791,3.34125 -0.32059,7.49211 -0.42969,9.22461 -0.10911,1.7325 -0.31897,6.18789 -0.46484,9.90039 -0.46172,11.75061 -0.86548,20.19575 -1.37891,28.79883 -0.11816,1.98 -0.31399,5.92914 -0.43359,8.77539 -0.24332,5.79051 -0.49973,7.57664 -1.21094,8.43359 -0.26747,0.32228 -1.903,1.84163 -3.63476,3.37696 l -3.14844,2.79101 0.29687,-3.8125 c 0.16295,-2.09742 0.39883,-6.24289 0.52344,-9.21289 0.12461,-2.97 0.34172,-6.81828 0.48438,-8.55078 0.14265,-1.7325 0.31416,-3.85836 0.38086,-4.72461 0.12447,-1.616 0.48337,-9.20339 0.95312,-20.13867 0.1462,-3.40313 0.34074,-6.99633 0.43164,-7.98633 0.0909,-0.99 0.28814,-4.92735 0.4375,-8.75 0.14936,-3.82264 0.36337,-7.10005 0.47656,-7.2832 0.11322,-0.18314 0.3079,-2.72618 0.43165,-5.65039 0.20959,-4.95264 0.93691,-13.76304 1.34961,-16.3418 0.099,-0.61875 0.3949,-2.634 0.65624,-4.47852 0.75873,-5.35483 2.9734,-13.40695 4.79493,-17.42968 0.26543,-0.67205 0.49361,-1.32818 0.76514,-1.93042 0.32425,-0.83712 0.90393,-1.50178 1.48714,-1.99385 0.54436,0.48629 0.78859,1.19228 1.12658,1.89867 z m -22.03313,137.13497 c 1.38738,-0.0419 4.60082,0.43565 5.24219,0.83203 0.17128,0.10586 1.92714,0.31243 3.90234,0.46094 1.97521,0.14851 4.90688,0.38363 6.51563,0.52149 1.73983,0.14908 3.47246,0.0425 4.27539,-0.26368 2.08264,-0.79406 10.11772,-1.12306 12.02929,-0.49218 2.20571,0.72795 2.714,1.41119 2.06836,2.77929 -0.69978,1.48281 -4.4888,4.40219 -6.90234,5.31836 -2.39797,0.91025 -2.86132,1.32255 -2.05273,1.82227 0.39196,0.24225 1.93869,-0.18158 4.26171,-1.16797 2.77954,-1.18025 4.2123,-2.13362 6.02735,-4.00586 1.3097,-1.35097 2.6412,-2.45508 2.95898,-2.45508 0.31778,0 1.04583,0.49729 1.61719,1.10547 1.01502,1.08044 1.02035,1.14279 0.27344,2.7168 -0.96084,2.02481 -1.68465,8.78215 -1.25586,11.72461 0.47762,3.27752 0.19859,5.73612 -0.61524,5.42382 -0.36071,-0.13842 -1.03905,0.13281 -1.50781,0.60157 -0.46877,0.46876 -0.96392,0.7392 -1.10156,0.60156 -0.37699,-0.37699 -3.48009,2.12366 -3.19922,2.57812 0.13388,0.21661 -0.13575,0.7611 -0.59961,1.20899 -0.46386,0.44787 -1.0691,1.21789 -1.3457,1.71289 -0.39511,0.70709 -0.50688,0.74485 -0.51758,0.17383 -0.008,-0.39975 0.38616,-1.23257 0.87305,-1.85157 0.4869,-0.61898 0.78903,-1.22268 0.67187,-1.33984 -0.11716,-0.11716 0.19294,-0.57996 0.68945,-1.0293 1.8695,-1.69187 0.54172,-2.16744 -1.89843,-0.67968 -0.81036,0.49407 -2.12775,0.89949 -2.92579,0.90039 -1.45686,0.002 -2.41293,-1.10649 -2.56835,-2.76172 -0.0422,-0.44982 -0.0377,-0.93219 0.0469,-1.45313 0.3597,-2.2165 -0.6877,-2.18953 -2.1543,0.0547 -0.48204,0.73765 -0.84918,1.15509 -1.23046,1.37109 -0.29769,0.1694 -0.60347,0.22083 -0.98243,0.17188 -0.61056,-0.0789 -3.55906,-0.17971 -6.55273,-0.22461 -0.99869,-0.015 -1.85015,-0.0174 -2.57422,-0.006 -0.33078,0.005 -0.56986,0.0227 -0.82617,0.0371 8e-4,-3.6e-4 0.001,-0.002 0.002,-0.002 -0.0226,9.1e-4 -0.0382,0.003 -0.0606,0.004 -0.0565,0.003 -0.12335,0.005 -0.18164,0.008 l -0.008,0.004 c -1.38726,0.0691 -2.20356,0.21315 -2.52344,0.47852 -1.10003,0.91258 -4.16392,0.24213 -5.50586,-1.20508 -1.07763,-1.16218 -1.93281,-3.89531 -1.38867,-4.43945 0.24228,-0.24228 2.47403,-0.43863 6.2461,-0.54883 0.78393,-0.0229 1.23828,-0.28334 1.23828,-0.71094 0,-0.69275 -0.26421,-0.76343 -3.39844,-0.90234 -3.10876,-0.13778 -4.1226,-0.60525 -5.56055,-2.56055 -1.53012,-2.08065 -1.74727,-3.76783 -0.73437,-5.72656 0.64645,-1.25008 0.71323,-1.26891 4.27539,-1.15625 2.77579,0.0878 3.61719,-0.0252 3.61719,-0.48633 0,-0.6137 -2.59828,-1.53602 -4.33985,-1.54102 -1.23489,-0.003 -3.75976,-2.85036 -3.75976,-4.24023 0,-0.70301 0.32515,-1.14225 0.96875,-1.31055 0.1108,-0.029 0.2725,-0.0448 0.4707,-0.0508 z m 48.84766,5.24024 c 1.00761,0.0274 2.45119,0.51529 2.64843,1.02929 0.1235,0.32188 0.16046,1.30027 0.082,2.17383 l -0.14258,1.58789 -1.18164,-1.02148 c -1.71834,-1.48524 -2.79906,-3.26106 -2.20704,-3.62696 0.17646,-0.10905 0.46492,-0.15172 0.80079,-0.14257 z m -2.92188,0.8789 c 0.19161,-0.0139 0.33594,0.0731 0.33594,0.29492 0,0.24164 -0.32096,0.5625 -0.71289,0.7129 -0.43827,0.16816 -0.64478,0.0671 -0.53516,-0.26172 0.14014,-0.42043 0.59277,-0.72287 0.91211,-0.7461 z m 0.72461,2.37305 c 0.67602,-0.049 1.54852,0.53159 2.72656,1.79101 0.60002,0.64149 1.3594,1.16602 1.6875,1.16602 0.39599,0 0.59571,0.60402 0.59571,1.79883 0,0.99 -0.0494,1.79316 -0.11133,1.78515 -0.0619,-0.008 -1.46633,-1.3092 -3.1211,-2.89257 -2.43907,-2.33383 -2.8931,-2.97717 -2.39257,-3.39258 0.18583,-0.15423 0.38989,-0.23954 0.61523,-0.25586 z m -2.94336,0.54101 c 0.22114,0.004 0.40674,0.23171 0.55078,0.68555 0.19195,0.60479 0.12616,1.08164 -0.16211,1.17774 -0.26642,0.0888 -0.72857,0.90134 -1.02734,1.80664 -0.29878,0.9053 -0.83172,1.93523 -1.18555,2.28906 -0.48873,0.48873 -0.56993,1.27614 -0.33789,3.27539 0.20853,1.79668 0.14794,2.63086 -0.18945,2.63086 -0.88168,0 -0.59112,-6.00931 0.42187,-8.7168 0.78214,-2.09045 1.44319,-3.15754 1.92969,-3.14844 z m 1.08008,3.05665 c 1.07248,-0.0397 3.10556,1.13589 4.98633,3.09375 1.8783,1.95527 1.93118,2.09279 1.79883,4.60351 l -0.13672,2.58985 -1.91211,-2.08008 c -1.05187,-1.14326 -1.91211,-2.24129 -1.91211,-2.44141 0,-0.20012 -0.80413,-1.26826 -1.78711,-2.37305 -0.98297,-1.10478 -1.79378,-2.25015 -1.80078,-2.54492 -0.0134,-0.56121 0.27618,-0.82959 0.76367,-0.84765 z m -1.86328,3.61914 c 0.18261,0.0319 0.4005,0.18023 0.63672,0.46484 0.30359,0.36583 0.72042,0.56051 0.92578,0.43359 0.20535,-0.12692 1.46789,1.2427 2.80664,3.04297 1.33875,1.80027 2.82993,3.62367 3.3125,4.05078 0.7622,0.67502 0.86121,1.28421 0.75586,4.65821 -0.11993,3.84103 -0.14236,3.91056 -2.19531,6.64843 -3.03416,4.04643 -5.92614,9.45172 -7.3125,13.66602 -0.66924,2.0344 -1.39295,3.70394 -1.60743,3.71094 -0.2145,0.007 -0.29458,-0.4864 -0.17773,-1.09766 0.1302,-0.6811 0.0352,-1.00274 -0.24414,-0.83008 -0.27936,0.17269 -0.3568,-0.0924 -0.20117,-0.6875 0.13967,-0.53405 0.0947,-0.87398 -0.0996,-0.7539 -0.19429,0.12007 -0.46734,-0.35427 -0.60742,-1.05469 -0.35812,-1.79056 -4.92143,-11.22119 -6.33204,-13.08594 -1.31047,-1.73237 -1.52908,-3.51753 -0.48046,-3.91992 1.17758,-0.45188 4.03855,2.85411 4.92773,5.69336 0.19378,0.61875 0.89424,2.34117 1.55664,3.82617 0.6624,1.485 1.4772,3.55945 1.81055,4.61133 0.66208,2.08918 1.12794,2.40656 1.49219,1.01367 0.12944,-0.495 0.0195,-0.90039 -0.2461,-0.90039 -0.26563,0 -0.36567,-0.11676 -0.22266,-0.25976 0.52,-0.52 -3.74059,-9.87106 -6.39843,-14.04297 -1.11549,-1.75093 -1.38222,-2.50842 -1.01172,-2.87891 1.06539,-1.06539 4.50583,2.47734 6.25391,6.43945 0.42277,0.95824 0.93293,1.74219 1.13281,1.74219 0.19986,0 0.36328,0.21203 0.36328,0.47266 0,0.26063 0.4978,1.20833 1.10742,2.10547 0.89755,1.32086 1.16282,1.48784 1.39649,0.8789 0.18548,-0.48343 -0.53117,-2.04327 -2.00782,-4.36914 -1.26334,-1.98987 -2.29687,-3.73318 -2.29687,-3.875 0,-0.14182 -0.60711,-1.02541 -1.34961,-1.96289 -1.36075,-1.71809 -1.73356,-3.31078 -0.89649,-3.82812 0.2494,-0.15414 0.76922,0.0368 1.15625,0.42382 0.38703,0.38703 0.85863,0.70313 1.04688,0.70313 0.18825,0 1.19029,1.16476 2.22656,2.58789 2.94364,4.04253 3.40255,4.5696 4.00391,4.5918 0.30938,0.0114 0.5625,-0.28305 0.5625,-0.6543 0,-0.37125 -0.18066,-0.67383 -0.40235,-0.67383 -0.22171,0 -1.08389,-1.06208 -1.91406,-2.35937 -0.83018,-1.29729 -1.81234,-2.6695 -2.18359,-3.04883 -0.37125,-0.37934 -1.0677,-1.42889 -1.54688,-2.33203 -0.73964,-1.39402 -0.77886,-1.75228 -0.26367,-2.37305 0.91193,-1.09881 2.32745,-0.6501 3.51172,1.11133 0.58169,0.86518 2.00669,2.66449 3.16602,4 1.15932,1.33552 2.23658,2.6289 2.39453,2.87304 0.30082,0.46495 1.28906,0.0711 1.28906,-0.51367 0,-0.18625 -1.20573,-1.64281 -2.67774,-3.23633 -2.76401,-2.99216 -5.07349,-6.8069 -5.61523,-9.27343 -0.21764,-0.99089 -0.0652,-1.63493 0.28516,-1.73242 0.0526,-0.0146 0.10905,-0.0165 0.16992,-0.006 z m -26.91016,16.27343 c 2.36168,-3.2e-4 4.27658,1.91371 4.27735,4.27539 3.2e-4,2.36245 -1.9149,4.27767 -4.27735,4.27735 -2.36244,3.1e-4 -4.27766,-1.91491 -4.27734,-4.27735 7.7e-4,-2.36168 1.91566,-4.2757 4.27734,-4.27539 z"
           id="path4197"
           inkscape:connector-curvature="0"
           sodipodi:nodetypes="csscsssssscsccccsccscsscsssssssscccccccscsssccsscsssssssssccccsssssccccssssscccsssssssssscccsscssscscscccccsscssscsssssssssccsccssscccccccccccccsssssssssscsccccccccccccccccccsscssccccsssssccccccsscccccscssssscscsssssscscsssssscssssssscsssssssscsssccccccccc" />
        <g
           id="g4275">
          <path
             id="path4269"
             d="m 169.48438,351.89648 c -2.36168,-3.1e-4 -4.27658,1.91372 -4.27735,4.2754 -3.2e-4,2.36244 1.91491,4.27765 4.27735,4.27734 2.36244,3.2e-4 4.27766,-1.91489 4.27734,-4.27734 -7.7e-4,-2.36168 -1.91566,-4.27572 -4.27734,-4.2754 z"
             style="opacity:1;fill:#e61414;fill-opacity:1;stroke:none;stroke-width:3.9000001;stroke-linecap:round;stroke-linejoin:round;stroke-miterlimit:4;stroke-dasharray:none;stroke-dashoffset:0.75;stroke-opacity:1"
             inkscape:connector-curvature="0" />
          <path
             id="path4226"
             d="m 170.49219,292.24414 -2.33399,2.23438 -0.20703,8.87109 2.54102,0 0,-11.10547 z m 1.00976,0 0,11.10547 2.54102,0 -0.20703,-8.87109 -2.33399,-2.23438 z m -4.5625,3.32031 -1.95703,1.8711 -0.17383,5.91406 2.13086,0 0,-7.78516 z m 8.11524,0 0,7.78516 2.13086,0 -0.17383,-5.91406 -1.95703,-1.8711 z m -11.25781,2.96094 -1.95704,1.87891 -0.17382,2.94531 2.13086,0 0,-4.82422 z m 14.40039,0 0,4.82422 2.13085,0 -0.17382,-2.94531 -1.95703,-1.87891 z"
             style="fill:#e61414;fill-opacity:1;fill-rule:evenodd;stroke:none;stroke-width:1px;stroke-linecap:butt;stroke-linejoin:miter;stroke-opacity:1"
             inkscape:connector-curvature="0" />
        </g>
      </g>
      <path
         sodipodi:nodetypes="ccc"
         inkscape:connector-curvature="0"
         id="path4152"
         d="m 272.76786,318.52291 c 4.27722,-6.57933 11.12044,-8.53983 18.21429,-8.66072 6.82522,0.2417 12.49163,4.35725 16.07143,9.73214"
         style="fill:none;fill-rule:evenodd;stroke:#000000;stroke-width:2.70000005;stroke-linecap:butt;stroke-linejoin:miter;stroke-miterlimit:4;stroke-dasharray:none;stroke-opacity:1" />
      <path
         sodipodi:nodetypes="ccccc"
         inkscape:connector-curvature="0"
         id="path4158"
         d="m 306.54018,271.6256 c -0.0231,2.14436 -1.04573,4.78968 -2.56696,6.83035 3.93321,-0.79423 5.4415,-3.10184 5.35714,-6.20535 -0.0625,-3.39216 -2.30339,-6.33155 -6.31696,-6.69643 2.35262,1.68979 3.53268,3.09428 3.52678,6.07143 z"
         style="fill:#ffffff;fill-rule:evenodd;stroke:none;stroke-width:1px;stroke-linecap:butt;stroke-linejoin:miter;stroke-opacity:1" />
      <path
         sodipodi:nodetypes="cccccc"
         inkscape:connector-curvature="0"
         id="path4160"
         d="m 297.41071,266.64792 -35.44642,-24.46429 c -8.58325,6.7396 -22.16412,17.57977 -22.19921,25.99355 0.28624,6.40732 12.0231,21.08021 17.37778,27.84574 l 1.33928,1.25 40.08929,-19.28572"
         style="fill:none;fill-rule:evenodd;stroke:#000000;stroke-width:2.4000001;stroke-linecap:butt;stroke-linejoin:miter;stroke-miterlimit:4;stroke-dasharray:none;stroke-opacity:1" />
      <path
         sodipodi:nodetypes="ccccccc"
         inkscape:connector-curvature="0"
         id="path4167"
         d="m 264.71993,251.66931 -4.16374,-3.13599 c -6.17807,4.74215 -16.69863,14.92754 -16.76222,19.8558 0.10126,4.70278 9.37106,17.02036 13.93695,21.98661 l 3.6618,-2.22549 c -4.22656,-7.01778 -11.90392,-15.40429 -12.04291,-19.47701 0.53611,-5.14636 9.44613,-12.02242 15.37012,-17.00392 z"
         style="fill:#000000;fill-rule:evenodd;stroke:none;stroke-width:1px;stroke-linecap:butt;stroke-linejoin:miter;stroke-opacity:1" />
      <path
         sodipodi:nodetypes="ccccccc"
         inkscape:connector-curvature="0"
         id="path4171"
         d="m 271.16072,256.87113 -3.75001,-2.85714 c -5.50325,4.30998 -14.16816,10.74542 -14.41964,14.59821 0.0505,4.22325 7.95521,12.54765 11.78572,17.41072 l 4.375,-1.47322 c -4.22141,-6.15111 -9.9539,-12.97419 -10.20916,-15.62425 0.3447,-3.60126 9.26168,-9.76763 12.21809,-12.05432 z"
         style="fill:#000000;fill-rule:evenodd;stroke:none;stroke-width:1px;stroke-linecap:butt;stroke-linejoin:miter;stroke-opacity:1" />
      <path
         sodipodi:nodetypes="ccccccc"
         inkscape:connector-curvature="0"
         id="path4173"
         d="m 272.36607,282.80863 4.375,-1.69643 c -2.51317,-4.49353 -5.73687,-8.74772 -6.05517,-11.16426 0.43516,-3.09107 5.08604,-5.63193 8.0641,-7.49645 l -3.88393,-3.39286 c -4.04609,2.07819 -10.83544,7.25707 -10.98214,10.9375 0.11706,2.7891 5.54679,8.66329 8.48214,12.8125 z"
         style="fill:#000000;fill-rule:evenodd;stroke:none;stroke-width:1px;stroke-linecap:butt;stroke-linejoin:miter;stroke-opacity:1" />
      <path
         sodipodi:nodetypes="ccsccccccsccc"
         inkscape:connector-curvature="0"
         id="path4175"
         d="m 304.01813,245.91016 c -1.15864,-0.0264 -1.49968,1.56763 -0.43164,2.01757 3.59855,1.56635 5.5246,4.60643 6.80692,9.73633 1.28092,5.1243 1.05383,12.23628 0.5985,19.00977 -1.94137,12.4796 -3.09983,24.92629 -5.74136,37.24609 -0.29459,1.37 1.76062,1.81152 2.05469,0.44141 2.66264,-12.41826 4.72013,-24.75123 6.66546,-37.25698 l 0.008,-0.0449 0.002,-0.0449 c 0.46627,-6.91437 0.26523,-14.29527 -1.10352,-19.77092 -1.36875,-5.47566 -4.05414,-9.32518 -8.45257,-11.23968 -0.12779,-0.0581 -0.26593,-0.0899 -0.40625,-0.0937 z"
         style="color:#000000;font-style:normal;font-variant:normal;font-weight:normal;font-stretch:normal;font-size:medium;line-height:normal;font-family:sans-serif;text-indent:0;text-align:start;text-decoration:none;text-decoration-line:none;text-decoration-style:solid;text-decoration-color:#000000;letter-spacing:normal;word-spacing:normal;text-transform:none;direction:ltr;block-progression:tb;writing-mode:lr-tb;baseline-shift:baseline;text-anchor:start;white-space:normal;clip-rule:nonzero;display:inline;overflow:visible;visibility:visible;opacity:1;isolation:auto;mix-blend-mode:normal;color-interpolation:sRGB;color-interpolation-filters:linearRGB;solid-color:#000000;solid-opacity:1;fill:#000000;fill-opacity:1;fill-rule:evenodd;stroke:#000000;stroke-width:2;stroke-linecap:round;stroke-linejoin:miter;stroke-miterlimit:4;stroke-dasharray:none;stroke-dashoffset:0;stroke-opacity:1;color-rendering:auto;image-rendering:auto;shape-rendering:auto;text-rendering:auto;enable-background:accumulate" />
      <path
         sodipodi:nodetypes="ccsccccccsccc"
         inkscape:connector-curvature="0"
         id="path4179"
         d="m 300.96289,230.03125 c -1.16462,0.0568 -1.22255,1.75661 -0.0645,1.89258 6.18501,1.36722 10.60168,4.75676 13.71426,9.73691 3.11259,4.98015 5.09558,11.04359 5.92832,16.97988 2.29637,17.93675 -1.14992,38.41373 -8.2793,56.85157 -0.50216,1.20057 1.33465,1.91139 1.77148,0.68554 7.22702,-18.69032 10.74342,-39.43251 8.39063,-57.78906 l -0.002,-0.006 0,-0.006 c -0.85695,-6.10881 -1.73585,-12.2768 -5.06143,-17.59775 -3.32558,-5.32095 -9.42934,-10.42788 -16.20811,-10.73818 -0.0627,-0.01 -0.12612,-0.013 -0.18945,-0.01 z"
         style="color:#000000;font-style:normal;font-variant:normal;font-weight:normal;font-stretch:normal;font-size:medium;line-height:normal;font-family:sans-serif;text-indent:0;text-align:start;text-decoration:none;text-decoration-line:none;text-decoration-style:solid;text-decoration-color:#000000;letter-spacing:normal;word-spacing:normal;text-transform:none;direction:ltr;block-progression:tb;writing-mode:lr-tb;baseline-shift:baseline;text-anchor:start;white-space:normal;clip-rule:nonzero;display:inline;overflow:visible;visibility:visible;opacity:1;isolation:auto;mix-blend-mode:normal;color-interpolation:sRGB;color-interpolation-filters:linearRGB;solid-color:#000000;solid-opacity:1;fill:#000000;fill-opacity:1;fill-rule:evenodd;stroke:#000000;stroke-width:2.0000001;stroke-linecap:round;stroke-linejoin:miter;stroke-miterlimit:4;stroke-dasharray:none;stroke-dashoffset:0;stroke-opacity:1;color-rendering:auto;image-rendering:auto;shape-rendering:auto;text-rendering:auto;enable-background:accumulate" />
      <path
         sodipodi:nodetypes="cccccc"
         inkscape:connector-curvature="0"
         id="path4183"
         d="m 257.21009,297.46258 -0.44194,19.69797 1.57836,0 c 0.0203,-9.50061 1.25293,-11.09598 5.49271,-17.42513 5.09505,-5.05623 10.28134,-7.87426 15.34169,-11.42735 z"
         style="fill:#000000;fill-rule:evenodd;stroke:none;stroke-width:1px;stroke-linecap:butt;stroke-linejoin:miter;stroke-opacity:1" />
      <path
         sodipodi:nodetypes="cccccccc"
         inkscape:connector-curvature="0"
         id="path4185"
         d="m 262.38712,241.52221 c 4.00549,-9.49313 9.64465,-14.58222 17.362,-17.35882 7.71604,-2.51832 14.25602,-2.21629 22.41276,-1.26269 9.23249,2.02292 13.12203,5.95075 17.80394,11.36421 3.75663,4.96071 5.59698,10.96331 7.1342,16.92006 2.04219,8.36778 1.56303,16.95184 1.7678,27.08471 -0.0558,8.36512 -1.68606,16.56474 -3.97748,24.3068 -2.52412,6.98836 -5.56652,17.12874 -9.84899,17.96177"
         style="fill:none;fill-rule:evenodd;stroke:#000000;stroke-width:2.0999999;stroke-linecap:butt;stroke-linejoin:miter;stroke-miterlimit:4;stroke-dasharray:none;stroke-opacity:1" />
      <path
         sodipodi:nodetypes="ccccccccccccccccccccccccccc"
         inkscape:connector-curvature="0"
         id="path4189"
         d="m 280.02232,223.00952 c 0.65353,-1.75638 0.1898,-2.83746 -0.49107,-4.1741 -1.31124,-1.569 -2.33781,-1.56929 -4.01785,-1.5625 -2.0544,0.12292 -4.26132,1.28934 -6.20536,2.34375 l -3.00148,-2.33035 c -1.43753,-0.96498 -1.03677,-1.86765 0.36412,-2.56493 9.1932,-4.32207 16.55892,-5.53424 26.27356,-5.45779 8.88078,0.11502 15.33686,2.55003 20.96066,6.43972 13.51129,9.97953 19.54961,20.48362 21.27634,37.81758 2.44394,16.98991 -1.77403,31.69334 -5.4927,47.3509 -3.00807,9.40978 -8.3244,18.93775 -12.37437,26.76905 l -2.46225,-4.67196 1.57837,-2.71478 4.29314,-5.87151 2.96733,-7.57615 3.78807,-13.57392 1.51523,-10.66974 0.0631,-14.14214 -0.75761,-12.69004 -3.21986,-12.69004 -3.91434,-6.88166 -4.86136,-5.74525 -6.62913,-5.42957 -9.40705,-2.2097 -12.50063,-0.0631 -8.01809,1.4521 z"
         style="fill:#000000;fill-rule:evenodd;stroke:none;stroke-width:1px;stroke-linecap:butt;stroke-linejoin:miter;stroke-opacity:1" />
      <path
         sodipodi:nodetypes="cccc"
         inkscape:connector-curvature="0"
         id="path4232"
         d="m 257.0162,170.47544 c 4.31393,-1.60782 8.08739,-1.15392 12.14286,1.38397 2.61428,2.04688 3.08581,3.97993 3.70535,6.69643 0.63748,4.25583 -1.45044,6.30501 -4.5982,8.57143"
         style="fill:none;fill-rule:evenodd;stroke:#000000;stroke-width:2.9000001;stroke-linecap:round;stroke-linejoin:miter;stroke-miterlimit:4;stroke-dasharray:none;stroke-opacity:1" />
      <path
         sodipodi:nodetypes="ccc"
         inkscape:connector-curvature="0"
         id="path4234"
         d="m 273.0077,197.04204 c 3.50663,-3.24361 7.28488,1.93012 8.04019,5.28632 0.88046,3.64484 0.25123,6.74489 -1.87947,9.08868"
         style="fill:none;fill-rule:evenodd;stroke:#000000;stroke-width:2.5;stroke-linecap:round;stroke-linejoin:miter;stroke-miterlimit:4;stroke-dasharray:none;stroke-opacity:1" />
      <path
         sodipodi:nodetypes="ccc"
         inkscape:connector-curvature="0"
         id="path4236"
         d="m 284.70905,210.4128 c 3.64981,-3.86362 4.29826,-8.80431 4.42605,-14.02459 -0.42808,-8.65668 -1.83511,-14.16916 -8.33277,-16.65538"
         style="fill:none;fill-rule:evenodd;stroke:#000000;stroke-width:3;stroke-linecap:round;stroke-linejoin:miter;stroke-miterlimit:4;stroke-dasharray:none;stroke-opacity:1" />
      <path
         sodipodi:nodetypes="ccccsccsccccccccc"
         inkscape:connector-curvature="0"
         id="path4238"
         d="m 311.41909,185.32728 c -0.7197,0.0406 -1.13375,0.83657 -0.75391,1.44922 2.01236,3.35391 2.70448,5.85677 2.02232,11.37612 -1.06384,5.04508 -4.2053,8.03534 -7.50303,10.95088 -1.06829,0.85411 -2.92475,1.1331 -4.86914,1.06446 -1.94888,-0.0688 -3.65156,0.12515 -4.96231,-0.0294 -1.28014,-0.17702 -0.183,1.88717 1.10318,2.01299 1.16129,0.13697 3.22755,0.53565 5.37109,0.61133 2.14354,0.0757 5.23587,-0.19137 6.9259,-1.55142 l 0.0156,-0.0137 0.0156,-0.0137 c 3.53591,-3.11906 5.63857,-6.51665 6.77862,-11.95975 l 0.008,-0.0391 0.004,-0.0391 c 0.74505,-5.94425 -1.18004,-9.84714 -3.28069,-13.34821 -0.17985,-0.30906 -0.518,-0.49096 -0.875,-0.4707 z"
         style="color:#000000;font-style:normal;font-variant:normal;font-weight:normal;font-stretch:normal;font-size:medium;line-height:normal;font-family:sans-serif;text-indent:0;text-align:start;text-decoration:none;text-decoration-line:none;text-decoration-style:solid;text-decoration-color:#000000;letter-spacing:normal;word-spacing:normal;text-transform:none;direction:ltr;block-progression:tb;writing-mode:lr-tb;baseline-shift:baseline;text-anchor:start;white-space:normal;clip-rule:nonzero;display:inline;overflow:visible;visibility:visible;opacity:1;isolation:auto;mix-blend-mode:normal;color-interpolation:sRGB;color-interpolation-filters:linearRGB;solid-color:#000000;solid-opacity:1;fill:#000000;fill-opacity:1;fill-rule:evenodd;stroke:#000000;stroke-width:1.5;stroke-linecap:round;stroke-linejoin:miter;stroke-miterlimit:4;stroke-dasharray:none;stroke-dashoffset:0;stroke-opacity:1;color-rendering:auto;image-rendering:auto;shape-rendering:auto;text-rendering:auto;enable-background:accumulate" />
      <path
         sodipodi:nodetypes="ccccccccccccc"
         inkscape:connector-curvature="0"
         id="path4240"
         d="m 337.42466,208.22377 c -0.41023,0.0202 -0.73856,0.34765 -0.75976,0.75782 -0.22808,3.42112 -0.87601,5.09374 -2.73828,7.98437 -1.50802,1.73373 -3.89755,3.65093 -5.72695,4.12404 -4.92615,0.92678 -6.96296,0.0688 -10.73321,-1.87435 -1.0527,-0.31616 -1.51534,5.39599 -0.44564,5.64867 5.74928,2.48962 7.7221,2.15565 12.82997,-1.53523 1.78572,-1.02641 3.74617,-3.53478 5.33167,-5.36503 l 0.0371,-0.041 0.0312,-0.0488 c 1.95439,-3.02604 2.76841,-5.16676 3.00976,-8.78711 0.0387,-0.48096 -0.35399,-0.88646 -0.83594,-0.86328 z"
         style="color:#000000;font-style:normal;font-variant:normal;font-weight:normal;font-stretch:normal;font-size:medium;line-height:normal;font-family:sans-serif;text-indent:0;text-align:start;text-decoration:none;text-decoration-line:none;text-decoration-style:solid;text-decoration-color:#000000;letter-spacing:normal;word-spacing:normal;text-transform:none;direction:ltr;block-progression:tb;writing-mode:lr-tb;baseline-shift:baseline;text-anchor:start;white-space:normal;clip-rule:nonzero;display:inline;overflow:visible;visibility:visible;opacity:1;isolation:auto;mix-blend-mode:normal;color-interpolation:sRGB;color-interpolation-filters:linearRGB;solid-color:#000000;solid-opacity:1;fill:#000000;fill-opacity:1;fill-rule:evenodd;stroke:#000000;stroke-width:1.5;stroke-linecap:round;stroke-linejoin:miter;stroke-miterlimit:4;stroke-dasharray:none;stroke-dashoffset:0;stroke-opacity:1;color-rendering:auto;image-rendering:auto;shape-rendering:auto;text-rendering:auto;enable-background:accumulate" />
      <path
         sodipodi:nodetypes="cccscsccscccscccccc"
         inkscape:connector-curvature="0"
         id="path4242"
         d="m 349.00055,233.69475 c -0.52407,-0.007 -0.95491,0.41149 -0.96289,0.93555 -0.0885,3.16204 -1.21678,5.28963 -2.93545,7.96177 -0.87273,1.27773 -2.06985,2.43195 -3.58398,3.07421 -1.50096,0.63668 -3.33722,0.79686 -5.66797,0.0352 -1.24506,-0.72844 -1.75025,-0.53231 -2.36338,-1.05357 -0.63713,-0.54166 -1.08807,-1.13484 -1.6289,-2.30664 -0.52991,-1.15117 -2.25665,-0.35616 -1.72657,0.79493 0.61446,1.33129 1.27865,2.23943 2.125,2.95898 0.84636,0.71955 2.00179,1.81212 3.30854,2.57797 l 0.0859,0.0488 0.0937,0.0312 c 2.7421,0.91688 5.14673,0.74753 7.08399,-0.0742 1.93725,-0.82174 3.39165,-2.25447 4.41992,-3.76367 l 0.006,-0.01 0.006,-0.0117 c 1.92064,-2.98085 2.58153,-6.76824 2.67778,-10.20884 0.0227,-0.5354 -0.40166,-0.98361 -0.9375,-0.99023 z"
         style="color:#000000;font-style:normal;font-variant:normal;font-weight:normal;font-stretch:normal;font-size:medium;line-height:normal;font-family:sans-serif;text-indent:0;text-align:start;text-decoration:none;text-decoration-line:none;text-decoration-style:solid;text-decoration-color:#000000;letter-spacing:normal;word-spacing:normal;text-transform:none;direction:ltr;block-progression:tb;writing-mode:lr-tb;baseline-shift:baseline;text-anchor:start;white-space:normal;clip-rule:nonzero;display:inline;overflow:visible;visibility:visible;opacity:1;isolation:auto;mix-blend-mode:normal;color-interpolation:sRGB;color-interpolation-filters:linearRGB;solid-color:#000000;solid-opacity:1;fill:#000000;fill-opacity:1;fill-rule:evenodd;stroke:#000000;stroke-width:1.5;stroke-linecap:round;stroke-linejoin:miter;stroke-miterlimit:4;stroke-dasharray:none;stroke-dashoffset:0;stroke-opacity:1;color-rendering:auto;image-rendering:auto;shape-rendering:auto;text-rendering:auto;enable-background:accumulate" />
      <path
         sodipodi:nodetypes="cccssscscscccsccccccc"
         inkscape:connector-curvature="0"
         id="path4244"
         d="m 346.62214,272.10982 c -0.43446,-0.0346 -0.82451,0.26558 -0.90304,0.69428 -0.646,3.28836 -2.34356,5.64858 -4.85595,8.09011 -0.6751,0.58192 -1.32448,1.14016 -1.96535,1.63078 -0.64089,0.49065 -1.27328,0.91368 -1.91437,1.22516 -0.34804,0.16909 -1.42823,0.34704 -2.07066,0.0443 -0.54793,-0.25825 -0.55667,-0.40503 -0.98593,-0.96743 -0.5436,-0.92497 0.0199,-2.21474 -0.001,-2.62812 -0.0716,-1.40751 -0.37865,0.27155 -3.66643,-0.14396 -0.19724,1.25544 -0.34975,2.15102 -0.13003,3.06661 0.21974,0.9156 0.25538,2.58839 1.2131,3.39424 l 0.1388,0.11788 0.17403,0.0504 c 0.99742,0.28713 1.93835,0.36708 2.82083,0.28869 0.96217,-0.0855 1.85488,-0.35929 2.67563,-0.75807 2.03845,-1.11966 3.38349,-2.79397 4.84223,-4.04667 l 0.019,-0.016 0.0192,-0.0179 c 2.64661,-2.56801 4.62618,-5.29512 5.35434,-9.0017 0.10583,-0.50166 -0.25323,-0.98211 -0.7643,-1.02281 z"
         style="color:#000000;font-style:normal;font-variant:normal;font-weight:normal;font-stretch:normal;font-size:medium;line-height:normal;font-family:sans-serif;text-indent:0;text-align:start;text-decoration:none;text-decoration-line:none;text-decoration-style:solid;text-decoration-color:#000000;letter-spacing:normal;word-spacing:normal;text-transform:none;direction:ltr;block-progression:tb;writing-mode:lr-tb;baseline-shift:baseline;text-anchor:start;white-space:normal;clip-rule:nonzero;display:inline;overflow:visible;visibility:visible;opacity:1;isolation:auto;mix-blend-mode:normal;color-interpolation:sRGB;color-interpolation-filters:linearRGB;solid-color:#000000;solid-opacity:1;fill:#000000;fill-opacity:1;fill-rule:evenodd;stroke:#000000;stroke-width:0.80000001;stroke-linecap:round;stroke-linejoin:miter;stroke-miterlimit:4;stroke-dasharray:none;stroke-dashoffset:0;stroke-opacity:1;color-rendering:auto;image-rendering:auto;shape-rendering:auto;text-rendering:auto;enable-background:accumulate" />
      <path
         sodipodi:nodetypes="ccccscccccscccc"
         inkscape:connector-curvature="0"
         id="path4246"
         d="m 336.95999,308.72342 c -0.29283,0.0334 -0.55596,0.19445 -0.71915,0.43989 -2.84551,4.14661 -5.17241,5.98733 -10.63409,8.80591 l -0.002,2.7e-4 c -1.69712,0.87948 -3.61526,3.30355 -5.01552,5.38661 -1.40027,2.08304 -2.62848,4.49317 -3.46463,6.69485 l -0.007,0.0226 -1.597,6.39341 c -0.41412,1.26871 1.38174,2.50912 1.79514,1.24017 l 2.03884,-6.24838 c 0.77655,-2.04008 1.94754,-4.33752 3.24609,-6.26927 1.30199,-1.93685 3.38665,-4.14957 4.49602,-4.72501 5.62474,-2.90272 8.23664,-5.47007 10.7923,-10.16948 0.49934,-0.70533 -0.0706,-1.66922 -0.92927,-1.57156 z"
         style="color:#000000;font-style:normal;font-variant:normal;font-weight:normal;font-stretch:normal;font-size:medium;line-height:normal;font-family:sans-serif;text-indent:0;text-align:start;text-decoration:none;text-decoration-line:none;text-decoration-style:solid;text-decoration-color:#000000;letter-spacing:normal;word-spacing:normal;text-transform:none;direction:ltr;block-progression:tb;writing-mode:lr-tb;baseline-shift:baseline;text-anchor:start;white-space:normal;clip-rule:nonzero;display:inline;overflow:visible;visibility:visible;opacity:1;isolation:auto;mix-blend-mode:normal;color-interpolation:sRGB;color-interpolation-filters:linearRGB;solid-color:#000000;solid-opacity:1;fill:#000000;fill-opacity:1;fill-rule:evenodd;stroke:#000000;stroke-width:1.5;stroke-linecap:round;stroke-linejoin:miter;stroke-miterlimit:4;stroke-dasharray:none;stroke-dashoffset:0;stroke-opacity:1;color-rendering:auto;image-rendering:auto;shape-rendering:auto;text-rendering:auto;enable-background:accumulate" />
      <path
         sodipodi:nodetypes="cccccccccccccccc"
         inkscape:connector-curvature="0"
         id="path4248"
         d="m 330.16602,341.87305 c -0.19157,0.008 -0.37467,0.0814 -0.51954,0.20703 -3.385,2.84342 -5.99337,5.60081 -8.30326,9.04812 l -0.0215,0.0293 -0.0176,0.0332 c -3.65011,6.64321 -5.17574,12.53889 -5.19673,20.20969 l 0,0.0312 0.004,0.0312 c 0.29626,4.18981 0.14969,9.37989 1.26367,13.71484 0.26082,1.13167 1.96199,0.69579 1.64648,-0.42187 -1.01748,-3.95943 -0.40668,-7.12606 -0.70781,-11.43573 0.0187,-6.29252 1.10014,-11.03814 3.65278,-16.36518 1.48739,-2.88783 2.85629,-5.60129 4.36911,-8.18091 1.22488,-2.0861 2.75887,-4.0107 4.40467,-5.39318 0.63349,-0.51716 0.24281,-1.54304 -0.57421,-1.50781 z"
         style="color:#000000;font-style:normal;font-variant:normal;font-weight:normal;font-stretch:normal;font-size:medium;line-height:normal;font-family:sans-serif;text-indent:0;text-align:start;text-decoration:none;text-decoration-line:none;text-decoration-style:solid;text-decoration-color:#000000;letter-spacing:normal;word-spacing:normal;text-transform:none;direction:ltr;block-progression:tb;writing-mode:lr-tb;baseline-shift:baseline;text-anchor:start;white-space:normal;clip-rule:nonzero;display:inline;overflow:visible;visibility:visible;opacity:1;isolation:auto;mix-blend-mode:normal;color-interpolation:sRGB;color-interpolation-filters:linearRGB;solid-color:#000000;solid-opacity:1;fill:#000000;fill-opacity:1;fill-rule:evenodd;stroke:#000000;stroke-width:1.49999998;stroke-linecap:round;stroke-linejoin:miter;stroke-miterlimit:4;stroke-dasharray:none;stroke-dashoffset:0;stroke-opacity:1;color-rendering:auto;image-rendering:auto;shape-rendering:auto;text-rendering:auto;enable-background:accumulate" />
    </g>
  </g>
</svg>
